# xmcd
#
# Track frame offsets:
#	182
#	19075
#	40885
#	59305
#	76685
#	100045
#	118867
#	137622
#	158695
#	172845
#	189185
#	204637
#
# Disc length: 2878
#
# Revision: 4
# Processed by: cddbd v1.5.1PL0 Copyright (c) Steve Scherf et al.
# Submitted via: FreeRIP 2.60 
# Normalized: r3:DSETVAR1
#
DISCID=8c0b3c0c
DTITLE=Various Artist - Soul Hits Of The '70s Didn't It Blow Your Mind! Vol. 11
DYEAR=1991
DGENRE=Soul
TTITLE0=Barry White - I'm Gonna Love You Just A Little More Baby
TTITLE1=Love Unlimited - Walkin' In The Rain With The One I Love
TTITLE2=The Dells - Give Your Baby A Standing Ovation
TTITLE3=Billy Preston - Will It Go Round In Circles
TTITLE4=Fred Wesley and The J.B.'s - Doing It To Death
TTITLE5=Bloodstone - Natural High
TTITLE6=Don Covay - I Was Checkin' Out She Was Checkin' In
TTITLE7=Gladys Knight and The Pips - Midnight Train To Georgia
TTITLE8=The Pointer Sisters - Yes We Can Can
TTITLE9=Eddie Kendricks - Keep On Truckin'-Part 1
TTITLE10=The Staple Singers - If You're Ready (Come Go With Me)
TTITLE11=Ann Peebles - I Can't Stand The Rain
EXTD=Label =Rhino R2 70551
EXTT0=
EXTT1=
EXTT2=
EXTT3=
EXTT4=
EXTT5=
EXTT6=
EXTT7=
EXTT8=
EXTT9=
EXTT10=
EXTT11=
PLAYORDER=
